# Blender 3.5.1
# www.blender.org
mtllib boom3d.mtl
o Icosphere
v 0.000000 -1.000000 0.000000
v 0.723607 -0.447220 0.525725
v -0.276388 -0.447220 0.850649
v -0.894426 -0.447216 0.000000
v -0.276388 -0.447220 -0.850649
v 0.723607 -0.447220 -0.525725
v 0.276388 0.447220 0.850649
v -0.723607 0.447220 0.525725
v -0.723607 0.447220 -0.525725
v 0.276388 0.447220 -0.850649
v 0.894426 0.447216 0.000000
v 0.000000 1.000000 0.000000
v -0.162456 -0.850654 0.499995
v 0.425323 -0.850654 0.309011
v 0.262869 -0.525738 0.809012
v 0.850648 -0.525736 0.000000
v 0.425323 -0.850654 -0.309011
v -0.525730 -0.850652 0.000000
v -0.688189 -0.525736 0.499997
v -0.162456 -0.850654 -0.499995
v -0.688189 -0.525736 -0.499997
v 0.262869 -0.525738 -0.809012
v 0.951058 0.000000 0.309013
v 0.951058 0.000000 -0.309013
v 0.000000 0.000000 1.000000
v 0.587786 0.000000 0.809017
v -0.951058 0.000000 0.309013
v -0.587786 0.000000 0.809017
v -0.587786 0.000000 -0.809017
v -0.951058 0.000000 -0.309013
v 0.587786 0.000000 -0.809017
v 0.000000 0.000000 -1.000000
v 0.688189 0.525736 0.499997
v -0.262869 0.525738 0.809012
v -0.850648 0.525736 0.000000
v -0.262869 0.525738 -0.809012
v 0.688189 0.525736 -0.499997
v 0.162456 0.850654 0.499995
v 0.525730 0.850652 0.000000
v -0.425323 0.850654 0.309011
v -0.425323 0.850654 -0.309011
v 0.162456 0.850654 -0.499995
v 0.407826 0.211055 1.255165
v -0.732638 -0.379149 -2.254839
v 1.067709 -0.211054 -0.775730
v -0.955488 -1.546039 1.568956
v -0.994983 -0.860606 -0.235961
v -2.140936 0.824862 0.707683
v 1.787435 1.546033 0.423893
v -0.124054 1.274817 0.381791
v -0.248108 1.051001 -0.763585
v 1.442340 -1.888066 0.000000
vn 0.1024 -0.9435 0.3151
vn 0.7002 -0.6617 0.2680
vn -0.2680 -0.9435 0.1947
vn -0.2680 -0.9435 -0.1947
vn 0.1024 -0.9435 -0.3151
vn 0.9050 -0.3304 0.2680
vn 0.0247 -0.3304 0.9435
vn -0.8897 -0.3304 0.3151
vn -0.5746 -0.3304 -0.7488
vn 0.5346 -0.3304 -0.7779
vn 0.8026 -0.1256 0.5831
vn -0.3066 -0.1256 0.9435
vn -0.9921 -0.1256 -0.0000
vn 0.8218 0.5663 0.0636
vn -0.0797 0.9661 -0.2454
vn 0.4089 0.6617 0.6284
vn -0.4713 0.6617 0.5831
vn -0.7002 0.6617 -0.2680
vn 0.0385 0.6617 -0.7488
vn 0.7240 0.6617 -0.1947
vn 0.2680 0.9435 -0.1947
vn 0.4911 0.7947 -0.3568
vn 0.4089 0.6617 -0.6284
vn -0.1024 0.9435 -0.3151
vn 0.2661 0.9607 0.0792
vn -0.4713 0.6617 -0.5831
vn -0.3313 0.9435 -0.0000
vn -0.6071 0.7947 -0.0000
vn -0.7002 0.6617 0.2680
vn -0.9383 0.0559 -0.3412
vn -0.1876 0.7947 0.5773
vn 0.0385 0.6617 0.7488
vn 0.2680 0.9435 0.1947
vn 0.4911 0.7947 0.3568
vn -0.8107 0.4263 -0.4013
vn 0.8897 0.3304 -0.3151
vn 0.7947 0.1876 -0.5773
vn 0.5746 0.3304 -0.7488
vn -0.0247 0.3304 -0.9435
vn -0.3035 0.1876 -0.9342
vn -0.5346 0.3304 -0.7779
vn -0.9050 0.3304 -0.2680
vn -0.9822 0.1876 -0.0000
vn 0.5586 0.0559 -0.8276
vn -0.5346 0.3304 0.7779
vn -0.3035 0.1876 0.9342
vn -0.0247 0.3304 0.9435
vn 0.5746 0.3304 0.7488
vn 0.7947 0.1876 0.5773
vn 0.8897 0.3304 0.3151
vn 0.3066 0.1256 -0.9435
vn 0.3035 -0.1876 -0.9342
vn 0.0247 -0.3304 -0.9435
vn -0.8026 0.1256 -0.5831
vn -0.7947 -0.1876 -0.5773
vn -0.8897 -0.3304 -0.3151
vn -0.8026 0.1256 0.5831
vn -0.7947 -0.1876 0.5773
vn -0.5746 -0.3304 0.7488
vn 0.6454 -0.6677 0.3711
vn 0.3035 -0.1876 0.9342
vn 0.5346 -0.3304 0.7779
vn 0.9921 0.1256 -0.0000
vn 0.9822 -0.1876 -0.0000
vn 0.9050 -0.3304 -0.2680
vn 0.4713 -0.6617 -0.5831
vn 0.1876 -0.7947 -0.5773
vn -0.0385 -0.6617 -0.7488
vn -0.4089 -0.6617 -0.6284
vn -0.4911 -0.7947 -0.3568
vn 0.1448 0.8833 0.4458
vn -0.7240 -0.6617 0.1947
vn -0.4911 -0.7947 0.3568
vn -0.5523 0.6677 0.4992
vn 0.7002 -0.6617 -0.2680
vn 0.4019 0.8679 -0.2920
vn 0.3313 -0.9435 -0.0000
vn -0.0385 -0.6617 0.7488
vn 0.1876 -0.7947 0.5773
vn 0.4713 -0.6617 0.5831
vn 0.7022 -0.5663 0.4316
vn 0.8377 0.5345 -0.1125
vn -0.6274 0.5663 0.5345
vn -0.3085 0.0562 0.9496
vn 0.2138 0.1954 -0.9571
vn -0.5114 -0.3608 -0.7799
vn -0.7888 -0.5705 0.2286
vn 0.3110 -0.7476 -0.5869
vn 0.8442 -0.1954 0.4991
vn -0.6115 0.5345 -0.5834
vn -0.0006 -0.4358 0.9000
vn -0.1935 -0.5663 -0.8012
vn 0.1535 -0.8679 0.4725
vn -0.3824 -0.6188 -0.6862
vn 0.4689 0.2036 -0.8595
vn -0.5345 0.6188 0.5757
vn 0.4689 0.2036 0.8595
vn -0.4101 -0.3748 0.8314
vn -0.7141 -0.7001 -0.0000
vn 0.7726 -0.5705 -0.2787
vt 0.181819 0.000000
vt 0.909091 0.000000
vt 0.727273 0.000000
vt 0.545455 0.000000
vt 0.363637 0.000000
vt 0.272728 0.157461
vt 1.000000 0.157461
vt 0.090910 0.157461
vt 0.818182 0.157461
vt 0.636364 0.157461
vt 0.454546 0.157461
vt 0.181819 0.314921
vt 0.000000 0.314921
vt 0.909091 0.314921
vt 0.727273 0.314921
vt 0.545455 0.314921
vt 0.363637 0.314921
vt 0.454546 0.472382
vt 0.636364 0.472382
vt 0.272728 0.472382
vt 0.818182 0.472382
vt 0.136365 0.078731
vt 0.954545 0.078731
vt 0.227273 0.078731
vt 0.318182 0.078731
vt 0.181819 0.157461
vt 0.363637 0.157461
vt 0.500000 0.078731
vt 0.409092 0.078731
vt 0.772727 0.078731
vt 0.863636 0.078731
vt 0.909091 0.157461
vt 0.590909 0.078731
vt 0.681818 0.078731
vt 0.727273 0.157461
vt 0.545455 0.157461
vt 0.318182 0.236191
vt 0.409092 0.236191
vt 0.136365 0.236191
vt 0.227273 0.236191
vt 0.863636 0.236191
vt 0.045455 0.236191
vt 0.954545 0.236191
vt 0.681818 0.236191
vt 0.772727 0.236191
vt 0.500000 0.236191
vt 0.590909 0.236191
vt 0.272728 0.314921
vt 0.090910 0.314921
vt 0.818182 0.314921
vt 0.636364 0.314921
vt 0.454546 0.314921
vt 0.227273 0.393651
vt 0.136365 0.393651
vt 0.409092 0.393651
vt 0.318182 0.393651
vt 0.045455 0.393651
vt 0.863636 0.393651
vt 0.772727 0.393651
vt 0.681818 0.393651
vt 0.500000 0.393651
vt 0.590909 0.393651
vt 0.227273 0.236191
vt 0.181819 0.314921
vt 0.136365 0.236191
vt 0.681818 0.236191
vt 0.636364 0.157461
vt 0.590909 0.236191
vt 0.500000 0.236191
vt 0.409092 0.236191
vt 0.454546 0.157461
vt 1.000000 0.157461
vt 0.136365 0.078731
vt 0.909091 0.157461
vt 0.818182 0.157461
vt 0.727273 0.157461
vt 0.863636 0.078731
vt 0.909091 0.314921
vt 0.818182 0.314921
vt 0.863636 0.236191
vt 0.272728 0.314921
vt 0.363637 0.314921
vt 0.318182 0.393651
vt 0.227273 0.393651
vt 0.045455 0.393651
vt 0.818182 0.472382
vt 0.636364 0.314921
vt 0.590909 0.393651
vt 0.681818 0.393651
vt 0.409092 0.078731
vt 0.363637 0.157461
vt 0.318182 0.078731
s 0
f 1/1/1 14/24/1 13/22/1
f 2/6/2 14/25/2 16/27/2
f 1/2/3 13/23/3 18/31/3
f 1/3/4 18/30/4 20/34/4
f 1/4/5 20/33/5 17/28/5
f 2/6/6 16/27/6 23/37/6
f 3/8/7 15/26/7 25/39/7
f 4/9/8 19/32/8 27/41/8
f 5/10/9 21/35/9 29/44/9
f 6/11/10 22/36/10 31/46/10
f 2/6/11 23/37/11 26/40/11
f 3/8/12 25/39/12 28/42/12
f 4/9/13 27/41/13 30/45/13
f 26/40/14 7/12/14 43/63/14
f 29/44/15 32/47/15 44/66/15
f 7/12/16 33/48/16 38/53/16
f 8/13/17 34/49/17 40/57/17
f 9/15/18 35/50/18 41/59/18
f 10/16/19 36/51/19 42/62/19
f 11/17/20 37/52/20 39/55/20
f 39/55/21 42/61/21 12/18/21
f 39/55/22 37/52/22 42/61/22
f 37/52/23 10/16/23 42/61/23
f 42/62/24 41/60/24 12/19/24
f 8/14/25 35/50/25 48/78/25
f 36/51/26 9/15/26 41/60/26
f 41/59/27 40/58/27 12/21/27
f 41/59/28 35/50/28 40/58/28
f 35/50/29 8/14/29 40/58/29
f 36/51/30 41/60/30 51/87/30
f 40/57/31 34/49/31 38/54/31
f 34/49/32 7/12/32 38/54/32
f 38/53/33 39/56/33 12/20/33
f 38/53/34 33/48/34 39/56/34
f 4/9/35 21/35/35 47/75/35
f 24/38/36 37/52/36 11/17/36
f 24/38/37 31/46/37 37/52/37
f 31/46/38 10/16/38 37/52/38
f 32/47/39 36/51/39 10/16/39
f 32/47/40 29/44/40 36/51/40
f 29/44/41 9/15/41 36/51/41
f 30/45/42 35/50/42 9/15/42
f 30/45/43 27/41/43 35/50/43
f 42/62/44 36/51/44 51/88/44
f 28/42/45 34/49/45 8/13/45
f 28/42/46 25/39/46 34/49/46
f 25/39/47 7/12/47 34/49/47
f 26/40/48 33/48/48 7/12/48
f 26/40/49 23/37/49 33/48/49
f 23/37/50 11/17/50 33/48/50
f 31/46/51 32/47/51 10/16/51
f 31/46/52 22/36/52 32/47/52
f 22/36/53 5/10/53 32/47/53
f 29/44/54 30/45/54 9/15/54
f 29/44/55 21/35/55 30/45/55
f 21/35/56 4/9/56 30/45/56
f 27/41/57 28/43/57 8/14/57
f 27/41/58 19/32/58 28/43/58
f 19/32/59 3/7/59 28/43/59
f 33/48/60 11/17/60 49/81/60
f 25/39/61 15/26/61 26/40/61
f 15/26/62 2/6/62 26/40/62
f 23/37/63 24/38/63 11/17/63
f 23/37/64 16/27/64 24/38/64
f 16/27/65 6/11/65 24/38/65
f 17/28/66 22/36/66 6/11/66
f 17/28/67 20/33/67 22/36/67
f 20/33/68 5/10/68 22/36/68
f 20/34/69 21/35/69 5/10/69
f 20/34/70 18/30/70 21/35/70
f 41/60/71 42/62/71 51/89/71
f 18/31/72 19/32/72 4/9/72
f 18/31/73 13/23/73 19/32/73
f 3/7/74 19/32/74 46/72/74
f 16/27/75 17/29/75 6/11/75
f 31/46/76 24/38/76 45/69/76
f 14/25/77 1/5/77 17/29/77
f 13/22/78 15/26/78 3/8/78
f 13/22/79 14/24/79 15/26/79
f 14/24/80 2/6/80 15/26/80
f 24/38/81 6/11/81 45/70/81
f 38/53/82 12/20/82 50/84/82
f 7/12/83 25/39/83 43/64/83
f 40/57/84 38/54/84 50/85/84
f 11/17/85 39/55/85 49/82/85
f 35/50/86 27/41/86 48/79/86
f 5/10/87 29/44/87 44/67/87
f 21/35/88 18/30/88 47/76/88
f 13/22/89 3/8/89 46/73/89
f 12/21/90 40/58/90 50/86/90
f 27/41/91 8/14/91 48/80/91
f 6/11/92 31/46/92 45/71/92
f 25/39/93 26/40/93 43/65/93
f 19/32/94 13/23/94 46/74/94
f 17/29/95 16/27/95 52/90/95
f 39/56/96 33/48/96 49/83/96
f 16/27/97 14/25/97 52/91/97
f 18/31/98 4/9/98 47/77/98
f 14/25/99 17/29/99 52/92/99
f 32/47/100 5/10/100 44/68/100
