# Blender 3.5.1
# www.blender.org
mtllib speed_bg.mtl
o circle.001
v -0.537138 0.803884 -0.400000
v -0.369987 0.893228 -0.400000
v -0.188618 0.948246 -0.400000
v -0.000000 0.966823 -0.400000
v -0.683647 0.683647 -0.400000
v -0.803884 0.537138 -0.400000
v -0.893228 0.369987 -0.400000
v -0.948246 0.188618 -0.400000
v -0.966823 -0.000000 -0.400000
v -0.948246 -0.188618 -0.400000
v -0.893228 -0.369987 -0.400000
v -0.803884 -0.537138 -0.400000
v -0.683647 -0.683647 -0.400000
v -0.537138 -0.803884 -0.400000
v -0.369987 -0.893228 -0.400000
v -0.188618 -0.948246 -0.400000
v -0.000000 -0.966823 -0.400000
v 0.188618 -0.948246 -0.400000
v 0.369987 -0.893228 -0.400000
v 0.537138 -0.803884 -0.400000
v 0.683647 -0.683647 -0.400000
v 0.803884 -0.537138 -0.400000
v 0.893228 -0.369987 -0.400000
v 0.948246 -0.188618 -0.400000
v 0.966823 -0.000000 -0.400000
v 0.948246 0.188618 -0.400000
v 0.893228 0.369987 -0.400000
v 0.803884 0.537138 -0.400000
v 0.683647 0.683647 -0.400000
v 0.537138 0.803884 -0.400000
v 0.369987 0.893228 -0.400000
v 0.188618 0.948246 -0.400000
vn -0.0000 -0.0000 -1.0000
vt 0.000000 0.000000
vt 0.000000 0.000000
vt 0.000000 0.000000
vt 0.000000 0.000000
vt 0.000000 0.000000
vt 0.000000 0.000000
vt 0.000000 0.000000
vt 0.000000 0.000000
vt 0.000000 0.000000
vt 0.000000 0.000000
vt 0.000000 0.000000
vt 0.000000 0.000000
vt 0.000000 0.000000
vt 0.000000 0.000000
vt 0.000000 0.000000
vt 0.000000 0.000000
vt 0.000000 0.000000
vt 0.000000 0.000000
vt 0.000000 0.000000
vt 0.000000 0.000000
vt 0.000000 0.000000
vt 0.000000 0.000000
vt 0.000000 0.000000
vt 0.000000 0.000000
vt 0.000000 0.000000
vt 0.000000 0.000000
vt 0.000000 0.000000
vt 0.000000 0.000000
vt 0.000000 0.000000
vt 0.000000 0.000000
vt 0.000000 0.000000
vt 0.000000 0.000000
s 0
usemtl bg
f 5/5/1 1/1/1 2/2/1 3/3/1 4/4/1 32/32/1 31/31/1 30/30/1 29/29/1 28/28/1 27/27/1 26/26/1 25/25/1 24/24/1 23/23/1 22/22/1 21/21/1 20/20/1 19/19/1 18/18/1 17/17/1 16/16/1 15/15/1 14/14/1 13/13/1 12/12/1 11/11/1 10/10/1 9/9/1 8/8/1 7/7/1 6/6/1
