# Blender 4.1.1
# www.blender.org
o Plane.001
v 0.000000 -0.112368 0.024380
v 0.897617 -0.112368 0.024380
v 0.000000 0.047871 0.024380
v 0.716479 0.047871 0.024380
v 0.897617 0.196143 0.024380
v 0.716479 0.196143 0.024380
v 0.000000 -0.176934 0.024380
v 0.954588 -0.176934 0.024380
v 0.954588 0.131577 0.024380
v 0.000000 -0.075726 -0.004433
v 0.457988 -0.075726 -0.004433
v 0.000000 0.011229 -0.004432
v 0.457988 0.011229 -0.004432
v 0.000000 -0.106497 -0.004433
v 0.488759 -0.106497 -0.004433
v 0.488759 -0.019542 -0.004432
v -0.897617 -0.112368 0.024380
v -0.716479 0.047871 0.024380
v -0.897617 0.196143 0.024380
v -0.716479 0.196143 0.024380
v -0.954588 -0.176934 0.024380
v -0.954588 0.131577 0.024380
v -0.457988 -0.075726 -0.004433
v -0.457988 0.011229 -0.004432
v -0.488759 -0.106497 -0.004433
v -0.488759 -0.019542 -0.004432
vn -0.0000 -0.0000 1.0000
vt 0.250000 0.500000
vt 0.750000 0.500000
s 0
f 1/1/1 2/1/1 4/1/1 3/1/1
f 4/1/1 2/1/1 5/1/1 6/1/1
f 5/2/1 2/2/1 8/2/1 9/2/1
f 2/2/1 1/2/1 7/2/1 8/2/1
f 10/1/1 11/1/1 13/1/1 12/1/1
f 13/1/1 11/1/1 15/1/1 16/1/1
f 11/1/1 10/1/1 14/1/1 15/1/1
f 1/1/1 3/1/1 18/1/1 17/1/1
f 18/1/1 20/1/1 19/1/1 17/1/1
f 19/2/1 22/2/1 21/2/1 17/2/1
f 17/2/1 21/2/1 7/2/1 1/2/1
f 10/1/1 12/1/1 24/1/1 23/1/1
f 24/1/1 26/1/1 25/1/1 23/1/1
f 23/1/1 25/1/1 14/1/1 10/1/1
